<svg id="visual" viewBox="0 0 960 540" width="960" height="540" xmlns="http://www.w3.org/2000/svg" xmlns:xlink="http://www.w3.org/1999/xlink" version="1.1"><g stroke-width="1" stroke-linejoin="bevel"><path d="M455.7 273L407.7 337L530.3 337Z" fill="#1a5653" stroke="#1a5653"></path><path d="M530.3 337L556.3 300L455.7 273Z" fill="#007b60" stroke="#007b60"></path><path d="M407.7 337L505.3 423L530.3 337Z" fill="#84cc16" stroke="#84cc16"></path><path d="M530.3 337L639 337L556.3 300Z" fill="#51b741" stroke="#51b741"></path><path d="M407.7 337L452.7 451L505.3 423Z" fill="#1a5653" stroke="#1a5653"></path><path d="M299 293L341 368L407.7 337Z" fill="#51b741" stroke="#51b741"></path><path d="M407.7 337L341 368L452.7 451Z" fill="#51b741" stroke="#51b741"></path><path d="M608 444L639 337L530.3 337Z" fill="#84cc16" stroke="#84cc16"></path><path d="M455.7 273L299 293L407.7 337Z" fill="#00885f" stroke="#00885f"></path><path d="M512.3 540L608 444L505.3 423Z" fill="#6ac231" stroke="#6ac231"></path><path d="M505.3 423L608 444L530.3 337Z" fill="#00885f" stroke="#00885f"></path><path d="M531.3 142L413.7 150L455.7 273Z" fill="#00945c" stroke="#00945c"></path><path d="M455.7 273L305 193L299 293Z" fill="#1a5653" stroke="#1a5653"></path><path d="M531.3 142L455.7 273L556.3 300Z" fill="#84cc16" stroke="#84cc16"></path><path d="M213.3 353L302 440L341 368Z" fill="#006f5e" stroke="#006f5e"></path><path d="M341 368L302 440L452.7 451Z" fill="#006f5e" stroke="#006f5e"></path><path d="M652 156L531.3 142L556.3 300Z" fill="#38ac4d" stroke="#38ac4d"></path><path d="M418.7 540L512.3 540L452.7 451Z" fill="#1a5653" stroke="#1a5653"></path><path d="M452.7 451L512.3 540L505.3 423Z" fill="#6ac231" stroke="#6ac231"></path><path d="M302 440L418.7 540L452.7 451Z" fill="#00945c" stroke="#00945c"></path><path d="M531.3 142L420.7 123L413.7 150Z" fill="#00945c" stroke="#00945c"></path><path d="M413.7 150L305 193L455.7 273Z" fill="#84cc16" stroke="#84cc16"></path><path d="M306 119L305 193L413.7 150Z" fill="#00945c" stroke="#00945c"></path><path d="M729.7 340L679 272L639 337Z" fill="#38ac4d" stroke="#38ac4d"></path><path d="M639 337L679 272L556.3 300Z" fill="#00885f" stroke="#00885f"></path><path d="M679 272L652 156L556.3 300Z" fill="#00885f" stroke="#00885f"></path><path d="M531.3 142L559.3 91L420.7 123Z" fill="#00885f" stroke="#00885f"></path><path d="M302 440L318 540L418.7 540Z" fill="#51b741" stroke="#51b741"></path><path d="M299 293L213.3 353L341 368Z" fill="#00945c" stroke="#00945c"></path><path d="M302 440L218.3 471L318 540Z" fill="#6ac231" stroke="#6ac231"></path><path d="M177.3 239L213.3 353L299 293Z" fill="#6ac231" stroke="#6ac231"></path><path d="M631 127L559.3 91L531.3 142Z" fill="#00885f" stroke="#00885f"></path><path d="M734.7 488L729.7 340L608 444Z" fill="#00945c" stroke="#00945c"></path><path d="M608 444L729.7 340L639 337Z" fill="#007b60" stroke="#007b60"></path><path d="M679 272L747.7 249L652 156Z" fill="#007b60" stroke="#007b60"></path><path d="M652 156L631 127L531.3 142Z" fill="#51b741" stroke="#51b741"></path><path d="M420.7 123L306 119L413.7 150Z" fill="#07625a" stroke="#07625a"></path><path d="M182.3 218L177.3 239L299 293Z" fill="#38ac4d" stroke="#38ac4d"></path><path d="M302 0L306 119L420.7 123Z" fill="#007b60" stroke="#007b60"></path><path d="M512.3 540L649 540L608 444Z" fill="#07625a" stroke="#07625a"></path><path d="M213.3 353L218.3 471L302 440Z" fill="#006f5e" stroke="#006f5e"></path><path d="M729.7 340L747.7 249L679 272Z" fill="#1a5653" stroke="#1a5653"></path><path d="M652 156L779.7 101L631 127Z" fill="#6ac231" stroke="#6ac231"></path><path d="M182.3 218L299 293L305 193Z" fill="#00945c" stroke="#00945c"></path><path d="M127.7 540L204.3 540L218.3 471Z" fill="#006f5e" stroke="#006f5e"></path><path d="M649 540L734.7 488L608 444Z" fill="#006f5e" stroke="#006f5e"></path><path d="M844.3 260L776.7 195L747.7 249Z" fill="#006f5e" stroke="#006f5e"></path><path d="M306 119L182.3 218L305 193Z" fill="#00945c" stroke="#00945c"></path><path d="M548.3 0L459.7 0L559.3 91Z" fill="#00885f" stroke="#00885f"></path><path d="M559.3 91L459.7 0L420.7 123Z" fill="#1a5653" stroke="#1a5653"></path><path d="M125.7 435L218.3 471L213.3 353Z" fill="#00945c" stroke="#00945c"></path><path d="M218.3 471L204.3 540L318 540Z" fill="#20a056" stroke="#20a056"></path><path d="M747.7 249L776.7 195L652 156Z" fill="#51b741" stroke="#51b741"></path><path d="M679 0L548.3 0L559.3 91Z" fill="#51b741" stroke="#51b741"></path><path d="M844.3 260L747.7 249L729.7 340Z" fill="#20a056" stroke="#20a056"></path><path d="M679 0L559.3 91L631 127Z" fill="#07625a" stroke="#07625a"></path><path d="M649 540L742.7 540L734.7 488Z" fill="#00885f" stroke="#00885f"></path><path d="M888.3 391L844.3 260L729.7 340Z" fill="#84cc16" stroke="#84cc16"></path><path d="M67.7 363L125.7 435L213.3 353Z" fill="#1a5653" stroke="#1a5653"></path><path d="M103.7 286L213.3 353L177.3 239Z" fill="#1a5653" stroke="#1a5653"></path><path d="M302 0L229.3 56L306 119Z" fill="#20a056" stroke="#20a056"></path><path d="M306 119L229.3 56L182.3 218Z" fill="#84cc16" stroke="#84cc16"></path><path d="M91.7 175L177.3 239L182.3 218Z" fill="#07625a" stroke="#07625a"></path><path d="M91.7 175L103.7 286L177.3 239Z" fill="#38ac4d" stroke="#38ac4d"></path><path d="M459.7 0L302 0L420.7 123Z" fill="#007b60" stroke="#007b60"></path><path d="M847.3 479L729.7 340L734.7 488Z" fill="#6ac231" stroke="#6ac231"></path><path d="M817.3 154L779.7 101L776.7 195Z" fill="#51b741" stroke="#51b741"></path><path d="M776.7 195L779.7 101L652 156Z" fill="#84cc16" stroke="#84cc16"></path><path d="M844.3 260L817.3 154L776.7 195Z" fill="#6ac231" stroke="#6ac231"></path><path d="M779.7 101L679 0L631 127Z" fill="#38ac4d" stroke="#38ac4d"></path><path d="M0 473L127.7 540L125.7 435Z" fill="#51b741" stroke="#51b741"></path><path d="M125.7 435L127.7 540L218.3 471Z" fill="#1a5653" stroke="#1a5653"></path><path d="M103.7 286L67.7 363L213.3 353Z" fill="#1a5653" stroke="#1a5653"></path><path d="M302 0L239.3 0L229.3 56Z" fill="#1a5653" stroke="#1a5653"></path><path d="M87.7 128L91.7 175L182.3 218Z" fill="#00885f" stroke="#00885f"></path><path d="M742.7 540L847.3 479L734.7 488Z" fill="#006f5e" stroke="#006f5e"></path><path d="M87.7 128L182.3 218L229.3 56Z" fill="#007b60" stroke="#007b60"></path><path d="M0 234L0 383L67.7 363Z" fill="#006f5e" stroke="#006f5e"></path><path d="M847.3 479L888.3 391L729.7 340Z" fill="#006f5e" stroke="#006f5e"></path><path d="M844.3 260L858.3 123L817.3 154Z" fill="#51b741" stroke="#51b741"></path><path d="M98.7 0L87.7 128L229.3 56Z" fill="#51b741" stroke="#51b741"></path><path d="M0 234L67.7 363L103.7 286Z" fill="#007b60" stroke="#007b60"></path><path d="M817.3 154L858.3 123L779.7 101Z" fill="#007b60" stroke="#007b60"></path><path d="M779.7 101L770.7 0L679 0Z" fill="#20a056" stroke="#20a056"></path><path d="M960 194L858.3 123L844.3 260Z" fill="#6ac231" stroke="#6ac231"></path><path d="M884.3 0L770.7 0L779.7 101Z" fill="#51b741" stroke="#51b741"></path><path d="M742.7 540L887.3 540L847.3 479Z" fill="#00885f" stroke="#00885f"></path><path d="M960 415L960 383L888.3 391Z" fill="#20a056" stroke="#20a056"></path><path d="M0 234L103.7 286L91.7 175Z" fill="#007b60" stroke="#007b60"></path><path d="M67.7 363L0 473L125.7 435Z" fill="#6ac231" stroke="#6ac231"></path><path d="M0 181L0 234L91.7 175Z" fill="#00945c" stroke="#00945c"></path><path d="M0 383L0 473L67.7 363Z" fill="#84cc16" stroke="#84cc16"></path><path d="M0 59L0 181L87.7 128Z" fill="#00945c" stroke="#00945c"></path><path d="M87.7 128L0 181L91.7 175Z" fill="#51b741" stroke="#51b741"></path><path d="M960 415L888.3 391L847.3 479Z" fill="#84cc16" stroke="#84cc16"></path><path d="M888.3 391L960 276L844.3 260Z" fill="#1a5653" stroke="#1a5653"></path><path d="M960 383L960 276L888.3 391Z" fill="#00945c" stroke="#00945c"></path><path d="M887.3 540L960 415L847.3 479Z" fill="#00885f" stroke="#00885f"></path><path d="M239.3 0L98.7 0L229.3 56Z" fill="#006f5e" stroke="#006f5e"></path><path d="M960 276L960 194L844.3 260Z" fill="#84cc16" stroke="#84cc16"></path><path d="M858.3 123L884.3 0L779.7 101Z" fill="#006f5e" stroke="#006f5e"></path><path d="M0 473L0 540L127.7 540Z" fill="#00885f" stroke="#00885f"></path><path d="M960 103L884.3 0L858.3 123Z" fill="#51b741" stroke="#51b741"></path><path d="M887.3 540L960 540L960 415Z" fill="#38ac4d" stroke="#38ac4d"></path><path d="M960 194L960 103L858.3 123Z" fill="#1a5653" stroke="#1a5653"></path><path d="M98.7 0L0 59L87.7 128Z" fill="#07625a" stroke="#07625a"></path><path d="M98.7 0L0 0L0 59Z" fill="#6ac231" stroke="#6ac231"></path><path d="M960 103L960 0L884.3 0Z" fill="#007b60" stroke="#007b60"></path></g></svg>