<svg id="Layer_1" data-name="Layer 1" xmlns="http://www.w3.org/2000/svg" viewBox="0 0 100 50"><defs><style>.cls-1{fill:#00945c;}.cls-2{fill:#1a5653;}</style></defs><path class="cls-1" d="M0-15c13.7,1,27.42,1.94,40.19,4.94S64.79-2,73.83,4.3a69.28,69.28,0,0,1,20,21.63c4.74,7.82,7.94,16,11.13,24.07H0Z"/><path class="cls-2" d="M0,17.49c6.86.5,13.7,1,20.09,2.49a49.63,49.63,0,0,1,16.82,7.17A34.64,34.64,0,0,1,46.94,38a78,78,0,0,1,5.57,12H0Z"/><path class="cls-2" d="M100,38c-8.52-1.83-17-3.64-25.12-5.54A158.57,158.57,0,0,1,52,25.67C44.9,22.78,38.19,19,34.43,14.53S29.82,5.06,29,0h71Z"/></svg>