<svg id="Layer_1" data-name="Layer 1" xmlns="http://www.w3.org/2000/svg" viewBox="0 0 100 50"><defs><style>.cls-1{fill:#84cc16;}.cls-2{fill:#00945c;}.cls-3{fill:#1a5653;}</style></defs><rect class="cls-1" width="100" height="50"/><path class="cls-2" d="M100,40.56c-6.49-1.94-13-3.88-19.13-5.92a94.43,94.43,0,0,1-17.4-7.24C58,24.31,52.9,20.25,50,15.53S46.54,5.4,45.92,0H100Z" transform="translate(0 0)"/><path class="cls-3" d="M100,20.28c-3.24-1-6.49-1.94-9.57-3a47.86,47.86,0,0,1-8.7-3.62A18.56,18.56,0,0,1,75,7.76C73.58,5.4,73.27,2.7,73,0h27Z" transform="translate(0 0)"/><path class="cls-2" d="M0,9.44c7.06.6,14.12,1.21,20.7,3.08a47.43,47.43,0,0,1,17.32,9A41.15,41.15,0,0,1,48.34,35a105.88,105.88,0,0,1,5.74,15H0Z" transform="translate(0 0)"/><path class="cls-3" d="M0,29.72a54.51,54.51,0,0,1,10.34,1.55A23.56,23.56,0,0,1,19,35.74a20.75,20.75,0,0,1,5.17,6.75A54.36,54.36,0,0,1,27,50H0Z" transform="translate(0 0)"/></svg>